<svg id="Layer_1" data-name="Layer 1" xmlns="http://www.w3.org/2000/svg" xmlns:xlink="http://www.w3.org/1999/xlink" viewBox="0 0 100.84 160.23"><defs><style>.cls-1{fill:url(#Degradado_sin_nombre_176);}.cls-2,.cls-3,.cls-4{opacity:0.35;}.cls-2{fill:url(#Degradado_sin_nombre_23);}.cls-3{fill:url(#Degradado_sin_nombre_23-2);}.cls-4{fill:url(#Degradado_sin_nombre_23-3);}.cls-5{fill:url(#Degradado_sin_nombre_163);}.cls-6{fill:url(#Degradado_sin_nombre_167);}.cls-7{fill:url(#Degradado_sin_nombre_176-2);}.cls-8,.cls-9{opacity:0.28;}.cls-8{fill:url(#Degradado_sin_nombre_24);}.cls-9{fill:url(#Degradado_sin_nombre_24-2);}.cls-10{fill:url(#Degradado_sin_nombre_23-4);}.cls-11{fill:url(#Degradado_sin_nombre_23-5);}.cls-12{opacity:0.13;fill:url(#Degradado_sin_nombre_24-3);}.cls-13{opacity:0.36;fill:url(#Degradado_sin_nombre_23-6);}.cls-14{opacity:0.5;fill:url(#Degradado_sin_nombre_23-7);}.cls-15{fill:url(#Degradado_sin_nombre_23-8);}.cls-16{fill:url(#Degradado_sin_nombre_23-9);}</style><linearGradient id="Degradado_sin_nombre_176" x1="385.81" y1="351.54" x2="424.72" y2="351.54" gradientTransform="translate(153.32 -122.11) rotate(21.05)" gradientUnits="userSpaceOnUse"><stop offset="0" stop-color="#08e3f3"/><stop offset="1" stop-color="#973bff"/></linearGradient><linearGradient id="Degradado_sin_nombre_23" x1="404.58" y1="318.26" x2="407.95" y2="369.64" gradientUnits="userSpaceOnUse"><stop offset="0" stop-color="#fff"/><stop offset="1" stop-color="#fff" stop-opacity="0"/></linearGradient><linearGradient id="Degradado_sin_nombre_23-2" x1="404.58" y1="318.26" x2="407.95" y2="369.64" xlink:href="#Degradado_sin_nombre_23"/><linearGradient id="Degradado_sin_nombre_23-3" x1="412.69" y1="321.18" x2="415.21" y2="359.73" xlink:href="#Degradado_sin_nombre_23"/><linearGradient id="Degradado_sin_nombre_163" x1="420.16" y1="433.45" x2="420.16" y2="501.21" gradientTransform="matrix(1, 0, 0.21, 1.05, -103.23, -23.24)" gradientUnits="userSpaceOnUse"><stop offset="0" stop-color="#ff0dbc"/><stop offset="1" stop-color="#ff7d00"/></linearGradient><linearGradient id="Degradado_sin_nombre_167" x1="407.63" y1="483.64" x2="384.07" y2="390.44" gradientUnits="userSpaceOnUse"><stop offset="0" stop-color="#67003d"/><stop offset="1" stop-color="#6a00e0"/></linearGradient><linearGradient id="Degradado_sin_nombre_176-2" x1="456.31" y1="393.28" x2="406.58" y2="394.54" gradientTransform="matrix(1, 0, 0, 1, 0, 0)" xlink:href="#Degradado_sin_nombre_176"/><linearGradient id="Degradado_sin_nombre_24" x1="427.32" y1="429.78" x2="442.6" y2="365.56" gradientTransform="matrix(1, 0, 0.21, 1.05, -103.23, -23.24)" gradientUnits="userSpaceOnUse"><stop offset="0"/><stop offset="1" stop-opacity="0"/></linearGradient><linearGradient id="Degradado_sin_nombre_24-2" x1="410.37" y1="480.01" x2="429.16" y2="401.05" xlink:href="#Degradado_sin_nombre_24"/><linearGradient id="Degradado_sin_nombre_23-4" x1="444.67" y1="438.73" x2="416.17" y2="482.92" gradientTransform="matrix(1, 0, 0.21, 1.05, -103.23, -23.24)" xlink:href="#Degradado_sin_nombre_23"/><linearGradient id="Degradado_sin_nombre_23-5" x1="455.75" y1="449.04" x2="430.54" y2="488.12" gradientTransform="matrix(1, 0, 0.21, 1.05, -103.23, -23.24)" xlink:href="#Degradado_sin_nombre_23"/><linearGradient id="Degradado_sin_nombre_24-3" x1="424.61" y1="503.48" x2="386.61" y2="408.09" xlink:href="#Degradado_sin_nombre_24"/><linearGradient id="Degradado_sin_nombre_23-6" x1="390.7" y1="352.69" x2="359.92" y2="400.43" xlink:href="#Degradado_sin_nombre_23"/><linearGradient id="Degradado_sin_nombre_23-7" x1="376.6" y1="366.08" x2="354.34" y2="400.59" xlink:href="#Degradado_sin_nombre_23"/><linearGradient id="Degradado_sin_nombre_23-8" x1="463.56" y1="363.17" x2="442.27" y2="396.19" xlink:href="#Degradado_sin_nombre_23"/><linearGradient id="Degradado_sin_nombre_23-9" x1="455.34" y1="372.95" x2="449.72" y2="381.66" xlink:href="#Degradado_sin_nombre_23"/></defs><circle class="cls-1" cx="405.26" cy="351.54" r="19.46" transform="translate(-454.31 -163.05) rotate(-21.05)"/><path class="cls-2" d="M405.26,332.09a19.45,19.45,0,0,0-17.11,10.18,19.46,19.46,0,0,1,28.16,25.28,19.45,19.45,0,0,0-11.05-35.46Z" transform="translate(-355.08 -332.09)"/><path class="cls-3" d="M424.72,351.54a19.48,19.48,0,0,1-8.41,16,19.46,19.46,0,0,0-28.16-25.28,19.43,19.43,0,0,1,15.17-10.08,17.87,17.87,0,0,1,1.94-.1A19.45,19.45,0,0,1,424.72,351.54Z" transform="translate(-355.08 -332.09)"/><path class="cls-4" d="M423.6,358a23.48,23.48,0,0,0-20.28-25.84,17.87,17.87,0,0,1,1.94-.1A19.44,19.44,0,0,1,423.6,358Z" transform="translate(-355.08 -332.09)"/><path class="cls-5" d="M442.4,470.44c-.31,17.43-14.29,24.2-28.11,21.18a34,34,0,0,1-22-16.21,37.39,37.39,0,0,1-3.57-8.4,61,61,0,0,1-2.36-18l.69-33.43a4.51,4.51,0,0,0-4.4-4.69h.75a22,22,0,0,1,10,2.52c8.18,4.13,14.44,12.91,14.72,22.23l.13,5.89c-.06,12.42,10,24.26,21.85,26.86a22.13,22.13,0,0,0,4.8.53s5.44-.06,7.38-2.73C442.35,466.23,442.8,467.12,442.4,470.44Z" transform="translate(-355.08 -332.09)"/><path class="cls-6" d="M435,469c-13.78,0-26.73-13.31-26.65-27.39l-.13-5.88c-.38-12.9-12.24-24.75-24.75-24.75h-1.85c-.45,0-.89,0-1.34-.06v0H355.08V389.79a16.46,16.46,0,0,1,16.46-16.46h11.78c22.29,0,40.09,19,39.69,42.3l-.68,33.42a18.94,18.94,0,0,0,.06,2.13A20.84,20.84,0,0,0,435,469Z" transform="translate(-355.08 -332.09)"/><path class="cls-7" d="M455.92,385.21v25.73H426.45a3.25,3.25,0,0,0-1,.15,3.58,3.58,0,0,0-2.43,3.36v.39a41.93,41.93,0,0,0-17.76-34.62,38.61,38.61,0,0,1,10-5,37.48,37.48,0,0,1,11.82-1.91H444l.66,0A11.88,11.88,0,0,1,455.92,385.21Z" transform="translate(-355.08 -332.09)"/><path class="cls-8" d="M425.46,411.09a3.57,3.57,0,0,0-2.42,3.35l0,1.18a42,42,0,0,0-17.75-35.41,38.64,38.64,0,0,1,10-5C419.47,382,426.23,395.48,425.46,411.09Z" transform="translate(-355.08 -332.09)"/><path class="cls-9" d="M435,469c-13.78,0-26.73-13.31-26.65-27.39l-.13-5.89c-.38-12.9-12.24-24.75-24.75-24.75,0,0,22.86-1.61,28.26,23.23,3.51,16.11,6.7,13.39,10.7,17A20.8,20.8,0,0,0,435,469Z" transform="translate(-355.08 -332.09)"/><path class="cls-10" d="M442.4,470.44c-.27,14.68-10.23,21.8-21.63,21.88-10.37.06-21.92-5.71-28.44-16.91,9.75,3.8,33.16,10.84,37.84-7a22.13,22.13,0,0,0,4.8.53,16.62,16.62,0,0,0,3.76-.55,6.84,6.84,0,0,0,3.62-2.18S442.8,467.12,442.4,470.44Z" transform="translate(-355.08 -332.09)"/><path class="cls-11" d="M442.4,470.44c-.27,14.68-10.23,21.8-21.63,21.88,6.85-1.57,17-6.8,18-23.91a6.84,6.84,0,0,0,3.62-2.18S442.8,467.12,442.4,470.44Z" transform="translate(-355.08 -332.09)"/><path class="cls-12" d="M414.29,491.62a34,34,0,0,1-22-16.21,37.39,37.39,0,0,1-3.57-8.4,61,61,0,0,1-2.36-18l.69-33.43a4.51,4.51,0,0,0-4.4-4.69h.75a22,22,0,0,1,10,2.52h0a41.26,41.26,0,0,1,3.8,22.31C395.16,452.2,394.12,474.15,414.29,491.62Z" transform="translate(-355.08 -332.09)"/><path class="cls-13" d="M368,410.91H355.08V389.79a16.46,16.46,0,0,1,16.46-16.46h5.24C372,377.92,365.69,388.42,368,410.91Z" transform="translate(-355.08 -332.09)"/><path class="cls-14" d="M357.05,410.91h-2V389.79a16.42,16.42,0,0,1,5.73-12.48C358.58,382.89,356.32,393.06,357.05,410.91Z" transform="translate(-355.08 -332.09)"/><path class="cls-15" d="M455.92,385.21v25.73h-5.38c.83-21.87-10-32.91-16.69-37.61H444A11.88,11.88,0,0,1,455.92,385.21Z" transform="translate(-355.08 -332.09)"/><path class="cls-16" d="M455.92,385.21v2.94a44,44,0,0,0-11.22-14.8A11.88,11.88,0,0,1,455.92,385.21Z" transform="translate(-355.08 -332.09)"/></svg>